<svg width="50" height="227" viewBox="0 0 50 227" fill="none" xmlns="http://www.w3.org/2000/svg">
<path d="M15.8 193.9H34.3V198.9H15.8V193.9ZM3.49998 221.6H46.7V226.5H3.49998V221.6ZM6.39998 182.4H20.4V187.25H6.39998V182.4ZM18.5 182.4H19.5L20.55 182.15L24.45 184.1C20.75 193.9 12.85 201.05 4.44998 205.1C3.64998 203.85 2.04998 201.8 0.849976 200.75C8.29998 197.6 15.75 190.8 18.5 183.4V182.4ZM29.9 180.7C33.35 188.85 40.35 196.1 49.05 199.4C47.65 200.6 45.9 202.85 45 204.4C35.8 200.2 28.95 192.2 24.8 182.3L29.9 180.7ZM3.99998 191.4L7.19998 188.1C9.44998 189.35 12.2 191.3 13.5 192.8L10.15 196.45C8.84998 194.95 6.14998 192.8 3.99998 191.4ZM37.6 181L42.1 184.2C39.35 186.55 36.1 189 33.6 190.6L30 187.8C32.4 186.1 35.7 183.2 37.6 181ZM43.25 186.85L47.65 189.95C44.8 192.45 41.35 195.05 38.7 196.7L35.1 193.9C37.7 192.1 41.2 189.15 43.25 186.85ZM16.25 206.55V210.95H33.35V206.55H16.25ZM10.4 201.75H39.55V215.7H10.4V201.75ZM13.3 216.35L18.8 214.95C20.1 216.75 21.2 219.3 21.65 221L15.9 222.65C15.55 220.95 14.45 218.3 13.3 216.35ZM31.15 214.9L36.95 216.15C35.7 218.6 34.55 220.85 33.55 222.45L28.3 221.25C29.3 219.5 30.55 216.8 31.15 214.9Z" fill="white"/>
<path d="M4.9 152.2H41.8V157.1H4.9V152.2ZM39.15 152.2H45.3C45.3 152.2 45.2 153.75 45.05 154.5C44.25 161.15 43.3 164.35 41.8 165.7C40.6 166.9 39.15 167.25 37.3 167.35C35.7 167.5 32.85 167.5 29.9 167.4C29.8 165.8 29.1 163.65 28.2 162.25C30.85 162.5 33.65 162.55 34.8 162.55C35.75 162.55 36.3 162.5 36.8 162.05C37.75 161.35 38.55 158.65 39.1 152.9L39.15 152.2ZM21.7 148.75H27.75C26.5 158.95 23.2 164.95 5.25 167.65C4.85 166.2 3.55 163.9 2.5 162.65C18.6 160.7 20.7 156.55 21.7 148.75ZM6.05 122.2H38.65V126.6H6.05V122.2ZM36.95 122.2H38.55L39.9 121.9L43.8 125.45C38.95 128.3 32.8 131.3 26.9 133.25C26.2 132.25 24.75 130.6 23.95 129.8C28.65 128.3 34.4 125.35 36.95 123.4V122.2ZM13.05 130.2L17.35 127.15C22.75 128.5 30.4 131 34.6 132.95L29.95 136.4C26.3 134.5 18.7 131.75 13.05 130.2ZM13 143.1V145.55H37.45V143.1H13ZM13 136.8V139.2H37.45V136.8H13ZM7.25 132.7H43.5V149.65H7.25V132.7ZM21.95 134H27.7V147.55H21.95V134Z" fill="white"/>
<path d="M2.84998 66.7001H47.1V72.3H2.84998V66.7001ZM6.14998 77.8001H44.15V83.5H6.14998V77.8001ZM11.55 100.3H38.1V105.8H11.55V100.3ZM21.75 60.55H28.1V80.6H21.75V60.55ZM7.99998 87.6H42.5V107.65H35.9V92.95H14.2V107.65H7.99998V87.6Z" fill="white"/>
<path d="M28.25 23.4001H34.3V39.6501C34.3 41.4501 34.55 41.7001 36.2 41.7001C36.95 41.7001 39.9 41.7001 40.8 41.7001C42.45 41.7001 42.7 40.6 42.95 33.75C44.2 34.75 46.85 35.8001 48.4 36.2001C47.8 44.9501 46.3 47.35 41.3 47.35C40.2 47.35 36.35 47.35 35.3 47.35C29.65 47.35 28.25 45.4501 28.25 39.6501V23.4001ZM14.75 23.6501H21.15C20.35 34.6001 18.3 43.05 4.80002 47.55C4.15002 46 2.45002 43.55 1.15002 42.3C13.05 38.75 14.1 32.3001 14.75 23.6501ZM6.05002 4.70005L11.45 2.70005C13.75 6.45005 16.2 11.45 17.05 14.8L11.2 17.15C10.5 13.85 8.25002 8.65005 6.05002 4.70005ZM38.4 2.30005L44.8 4.50005C42.6 8.95005 40 13.7501 37.9 16.8501L32.65 14.85C34.7 11.55 37.15 6.30005 38.4 2.30005ZM2.45002 18.9H47.65V24.55H2.45002V18.9ZM21.75 0.550049H27.85V21.2001H21.75V0.550049Z" fill="white"/>
</svg>
